HIERARCHY
ROOT Hips
{
	OFFSET -0.001795 -0.223333 0.028219
	CHANNELS 6 Xposition Yposition Zposition Zrotation Yrotation Xrotation 
	JOINT LeftUpLeg
	{
		OFFSET 0.069520 -0.091406 -0.006815
		CHANNELS 3 Zrotation Yrotation Xrotation
		JOINT LeftLeg
		{
			OFFSET 0.034277 -0.375199 -0.004496
			CHANNELS 3 Zrotation Yrotation Xrotation
			JOINT LeftFoot
			{
				OFFSET -0.013596 -0.397961 -0.043693
				CHANNELS 3 Zrotation Yrotation Xrotation
				JOINT LeftToe
				{
					OFFSET 0.026358 -0.055791 0.119288
					CHANNELS 3 Zrotation Yrotation Xrotation
					End Site
					{
						OFFSET 0.000000 0.000000 0.000000
					}
				}
			}
		}
	}
	JOINT RightUpLeg
	{
		OFFSET -0.067670 -0.090522 -0.004320
		CHANNELS 3 Zrotation Yrotation Xrotation
		JOINT RightLeg
		{
			OFFSET -0.038290 -0.382569 -0.008850
			CHANNELS 3 Zrotation Yrotation Xrotation
			JOINT RightFoot
			{
				OFFSET 0.015774 -0.398415 -0.042312
				CHANNELS 3 Zrotation Yrotation Xrotation
				JOINT RightToe
				{
					OFFSET -0.025372 -0.048144 0.123348
					CHANNELS 3 Zrotation Yrotation Xrotation
					End Site
					{
						OFFSET 0.000000 0.000000 0.000000
					}
				}
			}
		}
	}
	JOINT Spine
	{
		OFFSET -0.002533 0.108963 -0.026696
		CHANNELS 3 Zrotation Yrotation Xrotation
		JOINT Spine1
		{
			OFFSET 0.005487 0.135180 0.001092
			CHANNELS 3 Zrotation Yrotation Xrotation
			JOINT Spine2
			{
				OFFSET 0.001457 0.052922 0.025425
				CHANNELS 3 Zrotation Yrotation Xrotation
				JOINT Neck
				{
					OFFSET -0.002778 0.213870 -0.042857
					CHANNELS 3 Zrotation Yrotation Xrotation
					JOINT Head
					{
						OFFSET 0.005152 0.064970 0.051349
						CHANNELS 3 Zrotation Yrotation Xrotation
						End Site
						{
							OFFSET 0.000000 0.000000 0.000000
						}
					}
				}
				JOINT LeftShoulder
				{
					OFFSET 0.078845 0.121749 -0.034090
					CHANNELS 3 Zrotation Yrotation Xrotation
					JOINT LeftArm
					{
						OFFSET 0.090977 0.030469 -0.008868
						CHANNELS 3 Zrotation Yrotation Xrotation
						JOINT LeftForeArm
						{
							OFFSET 0.259612 -0.012772 -0.027456
							CHANNELS 3 Zrotation Yrotation Xrotation
							JOINT LeftHand
							{
								OFFSET 0.249234 0.008986 -0.001171
								CHANNELS 3 Zrotation Yrotation Xrotation
								End Site
								{
									OFFSET 0.000000 0.000000 0.000000
								}
							}
						}
					}
				}
				JOINT RightShoulder
				{
					OFFSET -0.081759 0.118833 -0.038615
					CHANNELS 3 Zrotation Yrotation Xrotation
					JOINT RightArm
					{
						OFFSET -0.096012 0.032551 -0.009143
						CHANNELS 3 Zrotation Yrotation Xrotation
						JOINT RightForeArm
						{
							OFFSET -0.253742 -0.013329 -0.021401
							CHANNELS 3 Zrotation Yrotation Xrotation
							JOINT RightHand
							{
								OFFSET -0.255298 0.007772 -0.005559
								CHANNELS 3 Zrotation Yrotation Xrotation
								End Site
								{
									OFFSET 0.000000 0.000000 0.000000
								}
							}
						}
					}
				}
			}
		}
	}
}
MOTION
Frames: 13
Frame Time: 0.050000
0.000000 0.934867 0.000000 -1.159930 -1.273420 1.669802 -1.628587 -0.159724 -1.725727 -2.323343 0.296098 -2.735441 5.337339 12.123504 5.283194 0.000000 0.000000 0.000000 -2.441780 0.582578 -6.475514 -0.574272 0.303289 5.308287 -51.705727 -37.959734 87.695537 0.000000 0.000000 0.000000 1.801817 -0.467664 7.880295 -1.631358 0.765771 2.497755 0.498434 1.752051 7.370252 4.487569 -1.334338 -17.751538 0.000000 0.000000 0.000000 -10.869184 -21.558060 8.722405 -52.078634 -24.886047 4.478855 31.472229 -61.314580 -16.034066 0.000000 0.000000 0.000000 10.022274 24.951162 10.656551 51.748016 35.738242 10.640452 -17.274595 49.738293 -5.623186 0.000000 0.000000 0.000000 
-0.000337 0.932964 0.000967 -1.220721 -1.531970 1.814424 -1.210293 -0.117769 -1.314332 -2.966755 0.361449 -3.604197 5.461340 12.278785 4.861383 0.000000 0.000000 0.000000 -2.607708 0.565878 -6.291083 -0.154719 0.217429 4.757273 -52.888323 -38.441523 87.657427 0.000000 0.000000 0.000000 1.839876 -0.419494 6.956141 -1.020123 0.466130 1.927953 0.127379 0.653900 7.924234 4.345716 -1.312142 -18.460306 0.000000 0.000000 0.000000 -10.199692 -19.588030 7.961462 -54.221128 -25.503961 5.018334 35.694658 -63.667612 -19.044609 0.000000 0.000000 0.000000 9.035491 25.187888 10.374327 53.236096 36.403697 11.310284 -13.948968 51.971780 -4.510224 0.000000 0.000000 0.000000 
-0.000908 0.933378 0.002124 -0.976166 -1.339260 1.419258 -1.100667 -0.088281 -1.014645 -3.551188 0.406615 -3.248586 5.329850 12.048169 4.911575 0.000000 0.000000 0.000000 -3.272108 0.530897 -6.090003 0.644737 0.122176 5.351847 -52.621499 -38.324040 87.714068 0.000000 0.000000 0.000000 2.057337 -0.433228 6.955789 -0.894671 0.418562 0.716135 0.240785 0.335116 8.418841 3.139507 -0.802052 -16.778061 0.000000 0.000000 0.000000 -10.439868 -19.351050 7.926379 -55.122781 -26.451202 5.586215 35.171874 -63.954343 -18.699414 0.000000 0.000000 0.000000 8.520287 24.875040 10.092641 54.298595 37.095822 11.916944 -14.571507 51.984781 -4.823219 0.000000 0.000000 0.000000 
-0.001901 0.932486 0.003301 -0.808070 -1.160609 0.928957 -1.409733 -0.012231 -0.287742 -3.209095 0.378585 -3.447298 5.277178 11.899526 4.578331 0.000000 0.000000 0.000000 -3.598295 0.503354 -5.887619 1.038162 0.088003 6.160629 -52.850805 -38.379498 87.844883 0.000000 0.000000 0.000000 1.722594 -0.372276 6.349021 -0.729060 0.327464 1.404755 0.698788 -0.712041 8.343978 2.517485 -0.481309 -17.388256 0.000000 0.000000 0.000000 -9.292138 -19.625409 8.074547 -57.682787 -26.751082 6.232176 37.733091 -63.916854 -20.007366 0.000000 0.000000 0.000000 6.619699 25.353765 9.808658 55.644325 38.404345 12.949650 -14.388991 52.472258 -4.970827 0.000000 0.000000 0.000000 
-0.003472 0.932924 0.004033 -0.457211 -0.574596 0.605799 -1.839583 0.074489 0.472987 -2.876886 0.354641 -4.142496 4.912029 11.297800 4.896853 0.000000 0.000000 0.000000 -3.844249 0.437916 -5.110951 1.022993 0.069432 5.652900 -53.327126 -38.424423 88.378618 0.000000 0.000000 0.000000 1.890612 -0.370649 6.148567 -0.863969 0.395539 1.144453 0.987996 -1.893147 8.615651 2.179773 -0.379780 -17.565591 0.000000 0.000000 0.000000 -8.822888 -19.673486 8.181433 -59.178798 -27.931978 7.192956 39.388049 -63.502724 -20.597193 0.000000 0.000000 0.000000 5.641817 24.873242 9.319614 57.510150 39.039797 13.745409 -16.233334 53.388391 -6.117012 0.000000 0.000000 0.000000 
-0.005746 0.933073 0.003715 -0.429162 -0.148372 0.956681 -1.868994 0.037973 0.104470 -2.564374 0.329651 -4.252189 4.726029 10.984634 4.988697 0.000000 0.000000 0.000000 -3.944954 0.454281 -5.385828 1.457610 -0.004674 5.530171 -53.774006 -38.469142 88.884021 0.000000 0.000000 0.000000 1.747840 -0.358237 6.032998 -0.476744 0.206502 0.984009 1.266483 -2.665188 8.701589 1.217178 0.151843 -17.919695 0.000000 0.000000 0.000000 -8.407280 -19.894832 8.319974 -60.543156 -30.182528 8.821275 40.135780 -62.964808 -20.659564 0.000000 0.000000 0.000000 4.314549 25.674018 9.380009 57.934010 40.062113 14.356991 -19.531694 53.690440 -7.888954 0.000000 0.000000 0.000000 
-0.008614 0.933399 0.002157 -0.263998 -0.244722 1.078542 -1.656815 -0.016078 -0.377038 -2.924838 0.352594 -3.814834 4.760065 11.081493 5.177544 0.000000 0.000000 0.000000 -4.003382 0.507656 -6.196218 1.580200 0.003610 6.530098 -53.519368 -38.373770 88.834743 0.000000 0.000000 0.000000 1.766439 -0.398089 6.716157 -0.405664 0.186461 0.342465 1.254333 -3.073481 8.852321 0.965238 0.253268 -18.042721 0.000000 0.000000 0.000000 -7.730115 -20.070627 8.361937 -61.229488 -31.991508 10.114416 42.349353 -62.669276 -21.803777 0.000000 0.000000 0.000000 3.765675 25.684142 9.254063 57.823152 41.360126 14.956177 -21.520506 53.996725 -9.014765 0.000000 0.000000 0.000000 
-0.012264 0.933498 -0.000000 -0.370546 -0.888919 1.653325 -1.352318 -0.126562 -1.414275 -2.870293 0.347286 -3.295759 5.107359 11.725860 5.333558 0.000000 0.000000 0.000000 -3.912315 0.613160 -7.579945 2.012820 -0.038118 7.432961 -53.278778 -38.392879 88.393669 0.000000 0.000000 0.000000 2.168917 -0.487686 7.703120 -0.828666 0.391312 0.302399 1.571402 -3.314773 8.588230 0.538089 0.448755 -18.188325 0.000000 0.000000 0.000000 -6.335399 -20.971182 8.611793 -61.433988 -35.204804 12.291936 45.809549 -60.048820 -22.690040 0.000000 0.000000 0.000000 1.585989 26.215877 9.096796 57.946949 44.600209 16.721501 -25.981447 52.674375 -11.042405 0.000000 0.000000 0.000000 
-0.016606 0.933244 -0.001937 -0.526388 -1.430465 1.911230 -1.022560 -0.210372 -2.232080 -2.669811 0.324812 -2.500273 5.455500 12.328501 5.245105 0.000000 0.000000 0.000000 -3.378879 0.684778 -8.212244 1.852409 0.003083 7.704092 -53.566178 -38.591062 88.075103 0.000000 0.000000 0.000000 2.210093 -0.556187 8.817507 -1.000468 0.473777 0.360739 1.565252 -3.232323 8.692839 0.435528 0.498799 -18.379044 0.000000 0.000000 0.000000 -4.264384 -21.816936 8.615050 -61.341275 -38.040979 14.147474 49.863265 -57.571054 -23.925200 0.000000 0.000000 0.000000 -0.448780 26.704837 8.975748 56.824238 47.801759 18.006298 -29.475855 50.683362 -12.207433 0.000000 0.000000 0.000000 
-0.021691 0.932762 -0.003086 -0.728585 -1.735156 2.270622 -0.493854 -0.234185 -2.505673 -2.626686 0.325546 -2.795752 5.613564 12.617758 5.299245 0.000000 0.000000 0.000000 -2.708387 0.753696 -8.686658 1.642340 0.041758 7.667452 -54.224646 -38.863995 88.026097 0.000000 0.000000 0.000000 2.161465 -0.628356 10.134280 -0.914191 0.429656 0.595250 1.710385 -3.446997 8.367822 0.464220 0.442763 -18.424578 0.000000 0.000000 0.000000 -2.403055 -22.588511 8.616055 -60.612572 -40.969895 15.935975 54.115896 -54.644757 -24.856546 0.000000 0.000000 0.000000 -3.297637 27.220771 8.733279 55.628430 51.575991 19.489284 -33.128746 48.053656 -13.157552 0.000000 0.000000 0.000000 
-0.027058 0.932392 -0.003811 -1.073097 -2.409367 2.636431 0.035394 -0.317550 -3.455403 -2.293447 0.284150 -1.755602 6.059276 13.385167 5.100390 0.000000 0.000000 0.000000 -1.919011 0.818352 -8.976199 1.504260 0.061093 7.272079 -54.808365 -39.229354 87.589057 0.000000 0.000000 0.000000 2.013754 -0.668139 11.187577 -1.046511 0.493746 0.754642 1.937828 -3.237494 8.402439 0.532187 0.358070 -17.911351 0.000000 0.000000 0.000000 -0.028832 -23.268717 8.421436 -59.436866 -43.671904 17.353804 58.116464 -51.935991 -25.603440 0.000000 0.000000 0.000000 -6.073771 28.144992 8.608246 53.164897 55.448636 20.353681 -35.970828 44.045122 -13.037853 0.000000 0.000000 0.000000 
-0.032293 0.932619 -0.004711 -1.319122 -2.571194 3.245076 0.651232 -0.378650 -4.277759 -2.269268 0.278703 -1.523873 6.163778 13.595803 5.306153 0.000000 0.000000 0.000000 -1.104870 0.923988 -9.694746 1.139304 0.122749 7.263886 -55.030643 -39.324900 87.599877 0.000000 0.000000 0.000000 1.657406 -0.721507 13.002160 -0.898423 0.419503 1.055464 2.155670 -2.724812 8.019118 0.432588 0.423014 -17.066208 0.000000 0.000000 0.000000 2.585093 -24.197602 8.219513 -56.390711 -46.898326 18.189297 62.007288 -48.148810 -25.639938 0.000000 0.000000 0.000000 -9.735689 29.152256 8.324837 48.307322 59.280749 19.899739 -39.356412 38.270555 -12.230151 0.000000 0.000000 0.000000 
-0.037187 0.933140 -0.006438 -1.500396 -2.496383 4.254274 0.890005 -0.505631 -5.862972 -1.696003 0.207629 -0.861832 6.197760 13.695676 5.618183 0.000000 0.000000 0.000000 -0.719144 1.064642 -10.924547 1.363378 0.087184 7.300887 -55.209536 -39.339447 87.876211 0.000000 0.000000 0.000000 1.440932 -0.796933 15.007862 -0.767325 0.358016 0.765214 2.269504 -1.780228 8.220159 0.409545 0.549053 -17.181353 0.000000 0.000000 0.000000 6.121555 -25.132081 7.809216 -52.723748 -50.919818 18.899398 64.533618 -43.295927 -24.191114 0.000000 0.000000 0.000000 -13.952375 29.864933 7.741387 40.078519 62.509960 17.035011 -42.258529 31.565715 -10.557326 0.000000 0.000000 0.000000 
